<svg xmlns="http://www.w3.org/2000/svg" viewBox="0 0 24 24" fill="none" stroke="#7c3aed" stroke-width="2" stroke-linecap="round" stroke-linejoin="round">
  <path d="M2 12C2 6.5 6.5 2 12 2a10 10 0 0 1 8 6"/>
  <path d="M5 19.5C5.5 18 6 15 6 12a6 6 0 0 1 .34-2"/>
  <path d="M17.29 21.02c.12-.6.43-2.3.5-3.02"/>
  <path d="M12 10a2 2 0 0 1 2 2c0 2.3-.2 4.6-.56 6.84"/>
  <path d="M8.53 16.77a4 4 0 0 1 1.06-4.02"/>
  <path d="M12 18a9.49 9.49 0 0 1 2.25-5.64"/>
  <path d="M14.5 21.33a12.02 12.02 0 0 1-.5-9.3"/>
  <path d="M8 22a10 10 0 0 1 1.75-8.65"/>
  <path d="M22 12c0 5.5-4.5 10-10 10"/>
</svg>
